<svg viewBox="0 0 330 200" xmlns="http://www.w3.org/2000/svg"><g><g><g><g><g><line x1="30" y1="178" x2="25" y2="178" style="visibility: inherit;" fill="rgb(0, 0, 0)" stroke="rgb(204, 204, 204)" stroke-width="1px"></line><line x1="30" y1="161.8181818181818" x2="25" y2="161.8181818181818" style="visibility: inherit;" fill="rgb(0, 0, 0)" stroke="rgb(204, 204, 204)" stroke-width="1px"></line><line x1="30" y1="145.63636363636363" x2="25" y2="145.63636363636363" style="visibility: inherit;" fill="rgb(0, 0, 0)" stroke="rgb(204, 204, 204)" stroke-width="1px"></line><line x1="30" y1="129.45454545454547" x2="25" y2="129.45454545454547" style="visibility: inherit;" fill="rgb(0, 0, 0)" stroke="rgb(204, 204, 204)" stroke-width="1px"></line><line x1="30" y1="113.27272727272727" x2="25" y2="113.27272727272727" style="visibility: inherit;" fill="rgb(0, 0, 0)" stroke="rgb(204, 204, 204)" stroke-width="1px"></line><line x1="30" y1="97.09090909090908" x2="25" y2="97.09090909090908" style="visibility: inherit;" fill="rgb(0, 0, 0)" stroke="rgb(204, 204, 204)" stroke-width="1px"></line><line x1="30" y1="80.90909090909092" x2="25" y2="80.90909090909092" style="visibility: inherit;" fill="rgb(0, 0, 0)" stroke="rgb(204, 204, 204)" stroke-width="1px"></line><line x1="30" y1="64.72727272727273" x2="25" y2="64.72727272727273" style="visibility: inherit;" fill="rgb(0, 0, 0)" stroke="rgb(204, 204, 204)" stroke-width="1px"></line><line x1="30" y1="48.54545454545454" x2="25" y2="48.54545454545454" style="visibility: inherit;" fill="rgb(0, 0, 0)" stroke="rgb(204, 204, 204)" stroke-width="1px"></line><line x1="30" y1="32.36363636363635" x2="25" y2="32.36363636363635" style="visibility: inherit;" fill="rgb(0, 0, 0)" stroke="rgb(204, 204, 204)" stroke-width="1px"></line><line x1="30" y1="16.181818181818187" x2="25" y2="16.181818181818187" style="visibility: inherit;" fill="rgb(0, 0, 0)" stroke="rgb(204, 204, 204)" stroke-width="1px"></line><line x1="30" y1="0" x2="25" y2="0" style="visibility: inherit;" fill="rgb(0, 0, 0)" stroke="rgb(204, 204, 204)" stroke-width="1px"></line></g><g transform="translate(20, 0)"><text x="0" y="178" dx="0em" dy="0.3em" style="text-anchor: end; visibility: hidden; font-family: Roboto, sans-serif; font-size: 12px; font-weight: 200;" fill="rgb(50, 49, 63)" stroke="none" stroke-width="1px">-2</text><text x="0" y="161.8181818181818" dx="0em" dy="0.3em" style="text-anchor: end; visibility: inherit; font-family: Roboto, sans-serif; font-size: 12px; font-weight: 200;" fill="rgb(50, 49, 63)" stroke="none" stroke-width="1px">0</text><text x="0" y="145.63636363636363" dx="0em" dy="0.3em" style="text-anchor: end; visibility: hidden; font-family: Roboto, sans-serif; font-size: 12px; font-weight: 200;" fill="rgb(50, 49, 63)" stroke="none" stroke-width="1px">2</text><text x="0" y="129.45454545454547" dx="0em" dy="0.3em" style="text-anchor: end; visibility: inherit; font-family: Roboto, sans-serif; font-size: 12px; font-weight: 200;" fill="rgb(50, 49, 63)" stroke="none" stroke-width="1px">4</text><text x="0" y="113.27272727272727" dx="0em" dy="0.3em" style="text-anchor: end; visibility: hidden; font-family: Roboto, sans-serif; font-size: 12px; font-weight: 200;" fill="rgb(50, 49, 63)" stroke="none" stroke-width="1px">6</text><text x="0" y="97.09090909090908" dx="0em" dy="0.3em" style="text-anchor: end; visibility: inherit; font-family: Roboto, sans-serif; font-size: 12px; font-weight: 200;" fill="rgb(50, 49, 63)" stroke="none" stroke-width="1px">8</text><text x="0" y="80.90909090909092" dx="0em" dy="0.3em" style="text-anchor: end; visibility: hidden; font-family: Roboto, sans-serif; font-size: 12px; font-weight: 200;" fill="rgb(50, 49, 63)" stroke="none" stroke-width="1px">10</text><text x="0" y="64.72727272727273" dx="0em" dy="0.3em" style="text-anchor: end; visibility: inherit; font-family: Roboto, sans-serif; font-size: 12px; font-weight: 200;" fill="rgb(50, 49, 63)" stroke="none" stroke-width="1px">12</text><text x="0" y="48.54545454545454" dx="0em" dy="0.3em" style="text-anchor: end; visibility: hidden; font-family: Roboto, sans-serif; font-size: 12px; font-weight: 200;" fill="rgb(50, 49, 63)" stroke="none" stroke-width="1px">14</text><text x="0" y="32.36363636363635" dx="0em" dy="0.3em" style="text-anchor: end; visibility: inherit; font-family: Roboto, sans-serif; font-size: 12px; font-weight: 200;" fill="rgb(50, 49, 63)" stroke="none" stroke-width="1px">16</text><text x="0" y="16.181818181818187" dx="0em" dy="0.3em" style="text-anchor: end; visibility: hidden; font-family: Roboto, sans-serif; font-size: 12px; font-weight: 200;" fill="rgb(50, 49, 63)" stroke="none" stroke-width="1px">18</text><text x="0" y="0" dx="0em" dy="0.3em" style="text-anchor: end; visibility: hidden; font-family: Roboto, sans-serif; font-size: 12px; font-weight: 200;" fill="rgb(50, 49, 63)" stroke="none" stroke-width="1px">20</text></g><line x1="30" y1="0" x2="30" y2="178" fill="rgb(0, 0, 0)" stroke="rgb(204, 204, 204)" stroke-width="1px"></line></g></g><g transform="translate(30, 0)" clip-path="url(#clip_0)"><clipPath id="clip_0"><rect width="300" height="178"></rect></clipPath><g><g><g><line x1="0" y1="0" x2="0" y2="178" fill="rgb(0, 0, 0)" stroke="rgb(60, 60, 60)" stroke-width="1px" opacity="0.25"></line><line x1="23.076923076923077" y1="0" x2="23.076923076923077" y2="178" fill="rgb(0, 0, 0)" stroke="rgb(60, 60, 60)" stroke-width="1px" opacity="0.25"></line><line x1="46.15384615384615" y1="0" x2="46.15384615384615" y2="178" fill="rgb(0, 0, 0)" stroke="rgb(60, 60, 60)" stroke-width="1px" opacity="0.25"></line><line x1="69.23076923076924" y1="0" x2="69.23076923076924" y2="178" fill="rgb(0, 0, 0)" stroke="rgb(60, 60, 60)" stroke-width="1px" opacity="0.25"></line><line x1="92.3076923076923" y1="0" x2="92.3076923076923" y2="178" fill="rgb(0, 0, 0)" stroke="rgb(60, 60, 60)" stroke-width="1px" opacity="0.25"></line><line x1="115.38461538461539" y1="0" x2="115.38461538461539" y2="178" fill="rgb(0, 0, 0)" stroke="rgb(60, 60, 60)" stroke-width="1px" opacity="0.25"></line><line x1="138.46153846153848" y1="0" x2="138.46153846153848" y2="178" fill="rgb(0, 0, 0)" stroke="rgb(60, 60, 60)" stroke-width="1px" opacity="0.25"></line><line x1="161.53846153846152" y1="0" x2="161.53846153846152" y2="178" fill="rgb(0, 0, 0)" stroke="rgb(60, 60, 60)" stroke-width="1px" opacity="0.25"></line><line x1="184.6153846153846" y1="0" x2="184.6153846153846" y2="178" fill="rgb(0, 0, 0)" stroke="rgb(60, 60, 60)" stroke-width="1px" opacity="0.25"></line><line x1="207.69230769230768" y1="0" x2="207.69230769230768" y2="178" fill="rgb(0, 0, 0)" stroke="rgb(60, 60, 60)" stroke-width="1px" opacity="0.25"></line><line x1="230.76923076923077" y1="0" x2="230.76923076923077" y2="178" fill="rgb(0, 0, 0)" stroke="rgb(60, 60, 60)" stroke-width="1px" opacity="0.25"></line><line x1="253.84615384615384" y1="0" x2="253.84615384615384" y2="178" fill="rgb(0, 0, 0)" stroke="rgb(60, 60, 60)" stroke-width="1px" opacity="0.25"></line><line x1="276.92307692307696" y1="0" x2="276.92307692307696" y2="178" fill="rgb(0, 0, 0)" stroke="rgb(60, 60, 60)" stroke-width="1px" opacity="0.25"></line><line x1="300" y1="0" x2="300" y2="178" fill="rgb(0, 0, 0)" stroke="rgb(60, 60, 60)" stroke-width="1px" opacity="0.25"></line></g><g><line x1="0" y1="178" x2="300" y2="178" fill="rgb(0, 0, 0)" stroke="rgb(60, 60, 60)" stroke-width="1px" opacity="0.25"></line><line x1="0" y1="161.8181818181818" x2="300" y2="161.8181818181818" fill="rgb(0, 0, 0)" stroke="rgb(60, 60, 60)" stroke-width="1px" opacity="0.25"></line><line x1="0" y1="145.63636363636363" x2="300" y2="145.63636363636363" fill="rgb(0, 0, 0)" stroke="rgb(60, 60, 60)" stroke-width="1px" opacity="0.25"></line><line x1="0" y1="129.45454545454547" x2="300" y2="129.45454545454547" fill="rgb(0, 0, 0)" stroke="rgb(60, 60, 60)" stroke-width="1px" opacity="0.25"></line><line x1="0" y1="113.27272727272727" x2="300" y2="113.27272727272727" fill="rgb(0, 0, 0)" stroke="rgb(60, 60, 60)" stroke-width="1px" opacity="0.25"></line><line x1="0" y1="97.09090909090908" x2="300" y2="97.09090909090908" fill="rgb(0, 0, 0)" stroke="rgb(60, 60, 60)" stroke-width="1px" opacity="0.25"></line><line x1="0" y1="80.90909090909092" x2="300" y2="80.90909090909092" fill="rgb(0, 0, 0)" stroke="rgb(60, 60, 60)" stroke-width="1px" opacity="0.25"></line><line x1="0" y1="64.72727272727273" x2="300" y2="64.72727272727273" fill="rgb(0, 0, 0)" stroke="rgb(60, 60, 60)" stroke-width="1px" opacity="0.25"></line><line x1="0" y1="48.54545454545454" x2="300" y2="48.54545454545454" fill="rgb(0, 0, 0)" stroke="rgb(60, 60, 60)" stroke-width="1px" opacity="0.25"></line><line x1="0" y1="32.36363636363635" x2="300" y2="32.36363636363635" fill="rgb(0, 0, 0)" stroke="rgb(60, 60, 60)" stroke-width="1px" opacity="0.25"></line><line x1="0" y1="16.181818181818187" x2="300" y2="16.181818181818187" fill="rgb(0, 0, 0)" stroke="rgb(60, 60, 60)" stroke-width="1px" opacity="0.25"></line><line x1="0" y1="0" x2="300" y2="0" fill="rgb(0, 0, 0)" stroke="rgb(60, 60, 60)" stroke-width="1px" opacity="0.25"></line></g></g></g><g><g><line x1="0" y1="161.8181818181818" x2="300" y2="161.8181818181818" fill="rgb(0, 0, 0)" stroke="rgb(153, 153, 153)" stroke-width="1.5px"></line></g></g><g><g><line x1="23.076923076923077" y1="0" x2="23.076923076923077" y2="178" fill="rgb(0, 0, 0)" stroke="rgb(153, 153, 153)" stroke-width="1.5px"></line></g></g><g><g><g><g><g><path stroke="rgb(255, 112, 67)" stroke-width="2px" d="M23.307692307692307,40.18976775082675L23.538461538461537,42.63866733420978L24,47.2841184966418L24.230769230769234,51.040991041112065L24.46153846153846,54.538336819064L24.69230769230769,57.953918327950895L24.923076923076923,61.339856558354434L25.153846153846153,64.70539909617962L25.384615384615387,68.04479245568743L25.615384615384613,71.34815157900336L25.846153846153847,74.60568492795143L26.076923076923077,77.80910755332773L26.307692307692307,80.95197240362135L26.53846153846154,84.02956041848363L26.769230769230766,87.0383572146374L27,89.97593523988441L27.23076923076923,92.8407014576766L27.461538461538463,95.63156782916703L27.692307692307693,98.34798478031078L27.92307692307692,100.98959723657184L28.153846153846153,103.55621197826895L28.384615384615383,106.04811167450156L28.615384615384617,108.46554228484594L28.846153846153847,110.80875224610786L29.076923076923077,113.07822928949955L29.307692307692307,115.27455787310808L29.53846153846154,117.3983347743389L30,120.19998393675894L30.23076923076923,122.6032435821468L30.46153846153846,124.74036485059284L30.692307692307693,126.69120437919545L30.923076923076923,128.50411200929102L31.153846153846157,130.20847182853163L31.384615384615383,131.82248525649658L31.615384615384613,133.35770045076666L31.846153846153847,134.82155633285277L32.07692307692308,136.21912505161913L32.30769230769231,137.55393137845164L32.53846153846154,138.82871209203208L33,140.47648896784895L33.23076923076923,141.8746990313281L33.46153846153846,143.10489035715244L33.69230769230769,144.2140373036842L33.92307692307692,145.2314186276843L34.15384615384615,146.17580220709317L34.38461538461539,147.05861157818944L34.61538461538462,147.8867957706585L34.84615384615385,148.66574411647917L35.07692307692307,149.39873419655976L35.30769230769231,150.08938843282792L35.53846153846154,150.73959941268288L35.769230769230774,151.3513595606017L36,151.92549897430482L36.23076923076923,152.46480662019718L36.46153846153846,152.9698709955589L36.69230769230769,153.44303826537225L36.92307692307693,153.88433803456024L37.15384615384615,154.29238238698085L37.38461538461539,154.6679697548391L37.61538461538461,155.0170784563664L37.84615384615385,155.33496229583176L38.07692307692307,155.61709800637618L38.30769230769231,155.87017002108175L38.53846153846154,156.09367566456973L38.76923076923077,156.2919148231942L39,156.46703011924234L39.23076923076923,156.62063833934408L39.69230769230769,156.79162353899574L39.92307692307692,156.92561953983062L40.15384615384615,157.03361721631336L40.38461538461538,157.12394817837853L40.61538461538461,157.20135058807057L40.84615384615385,157.26782204471607L41.07692307692308,157.32842687010134L41.30769230769231,157.38510179933255L41.53846153846154,157.44008989799013L41.769230769230774,157.49382419171542L42.00000000000001,157.54512988145174L42.230769230769226,157.59353820018617L42.69230769230769,157.66532571253947L42.92307692307692,157.72900423706417L43.15384615384615,157.78716680586842L43.38461538461539,157.83914304916726L43.61538461538462,157.89016812204846L43.84615384615385,157.9397447871917L44.07692307692308,157.9877403088336L44.307692307692314,158.03064620704635L44.53846153846153,158.07141924680528L44.76923076923077,158.10841709082442L45,158.14435401003811L45.230769230769226,158.17870423406566L45.46153846153846,158.21028626578084L45.69230769230769,158.2381079298731L45.92307692307693,158.26555667859446L46.15384615384615,158.29211413966712L46.38461538461539,158.31795935803007L46.61538461538461,158.34207735858553L46.84615384615384,158.3635819556627L47.07692307692307,158.38146747689598L47.30769230769231,158.39935835868266L47.53846153846154,158.41515020748247L47.76923076923077,158.42955609257817L48,158.44084778647735L48.23076923076923,158.45329654186003L48.46153846153847,158.46469743341714L48.69230769230769,158.47628847696325L48.92307692307692,158.48856981088755L49.15384615384615,158.49989523041813L49.38461538461538,158.50997686225406L49.61538461538461,158.51875203317977L49.84615384615385,158.52569393902058L50.07692307692308,158.53238562046366L50.30769230769231,158.54014756370006L50.53846153846154,158.54746465952428L50.769230769230774,158.55452333460264L51.00000000000001,158.56139966155732L51.230769230769226,158.56706124943065L51.46153846153846,158.5721122429681L51.69230769230769,158.5774365439471L51.92307692307692,158.5830808873557L52.15384615384615,158.58842342632147L52.38461538461539,158.59373544287055L52.61538461538461,158.5991829855578L53.07692307692308,158.6048901821088L53.307692307692314,158.61028393612136L53.53846153846153,158.61592056836005L54,158.6233998891107L54.230769230769226,158.62967481786723L54.46153846153846,158.63542753692207L54.69230769230769,158.64067576397176L54.92307692307693,158.6458167058532L55.15384615384615,158.65015831885202L55.38461538461539,158.65365015499816L55.61538461538462,158.6569514747984L55.84615384615384,158.659232422665L56.07692307692307,158.66215906330171L56.30769230769231,158.6647938141338L56.53846153846154,158.66852359630968L56.76923076923077,158.67213010746858L57,158.6759737109839L57.46153846153847,158.68072433110092L57.69230769230769,158.68462804620708L57.92307692307693,158.6885269968714L58.15384615384615,158.6921480101838L58.61538461538461,158.69711924481086L58.84615384615385,158.700083563417L59.07692307692308,158.70381557977132L59.30769230769231,158.70727354634633L59.53846153846154,158.71108454348672L59.769230769230774,158.71531839408783L60,158.7187957273946L60.230769230769226,158.72241029943817L60.46153846153846,158.7261684612056L60.69230769230769,158.72939442846896L60.92307692307692,158.73264396287686L61.15384615384615,158.73601305868115L61.38461538461539,158.73894839083323L61.61538461538461,158.74209221739488L61.84615384615385,158.74504545598035L62.07692307692308,158.74815999917382L62.307692307692314,158.75100172431584L62.76923076923077,158.75533669297505L63,158.75935569901395L63.230769230769226,158.76327280157827L63.69230769230769,158.76879341249804L63.92307692307693,158.77309015951187L64.15384615384616,158.7771922323801L64.38461538461539,158.77999732445952L64.84615384615384,158.78291206092405L65.07692307692308,158.78532352222012L65.3076923076923,158.78766700891097L65.53846153846153,158.7899490702921L65.76923076923077,158.79284792594754L66,158.79586733903616L66.23076923076923,158.79786629502743L66.46153846153847,158.79929618687655L66.6923076923077,158.80109153073673L66.92307692307692,158.80321725753117L67.15384615384615,158.8058521726017L67.38461538461539,158.80887226928976L68.07692307692308,158.8140220194333L69,158.82117680333965L69.23076923076924,158.82668119660943L69.46153846153845,158.83120287868718L69.6923076923077,158.83478597378013L69.92307692307692,158.83738114580677L70.15384615384615,158.84047452297904L70.61538461538461,158.84424645497478L70.84615384615385,158.8475826332433L71.07692307692308,158.85072911893286L71.3076923076923,158.85355258652544L71.53846153846155,152.68964822040837L72,151.06061222142264L72.23076923076923,150.95043964702927L72.46153846153847,151.63788272180855L72.6923076923077,152.6766043563462L72.92307692307692,153.77446554930395L73.15384615384616,154.7522420986919L73.38461538461539,155.55571170042165L73.61538461538461,156.21238316475927L73.84615384615385,156.76830881680974L74.07692307692308,157.21283492408298L74.3076923076923,157.52047519823807L74.53846153846153,157.6917397479306L74.76923076923077,157.74565937573797L75.23076923076923,157.64511573911037L75.46153846153847,157.52819877245403L75.6923076923077,157.41897854542847L75.92307692307692,157.33150647266197L76.15384615384615,157.28094241403363L76.38461538461539,157.270124148895L76.61538461538461,157.30074277071876L76.84615384615385,157.37095624535516L77.07692307692308,157.46698895022087L77.30769230769229,157.58831282321592L77.53846153846153,157.72553236945313L78,157.91869409100698L78.23076923076923,158.0789271145416L78.46153846153847,158.20566239163486L78.6923076923077,158.30260886292962L78.92307692307693,158.3702377357019L79.15384615384615,158.4149184771953L79.38461538461539,158.438204718906L79.61538461538461,158.44858886686572L79.84615384615384,158.44996197915276L80.07692307692308,158.4493860509494L80.3076923076923,158.44658899508548L80.53846153846155,158.4455727058264L80.76923076923076,158.45291349721896L81,158.46877241446887L81.23076923076923,158.49195180668477L81.46153846153847,158.52043157148063L81.6923076923077,158.5521637052865L81.92307692307692,158.58705241764827L82.15384615384616,158.62452074838643L82.38461538461537,158.65936012944448L82.84615384615384,158.7035764838834L83.07692307692308,158.73785402472114L83.3076923076923,158.76531101955513L83.53846153846155,158.78486094725616L83.76923076923077,158.8022910705357L84.00000000000001,158.8170861670247L84.23076923076923,158.82919781076683L84.46153846153845,158.84063013648202L84.92307692307692,158.856015717337L85.15384615384616,158.87222569253464L85.38461538461539,158.88791380564226L85.84615384615384,158.90602714616514L86.07692307692308,158.92042526265874L86.3076923076923,158.93211034930283L86.53846153846153,158.9424158833037L86.76923076923077,158.95027822536616L87,158.95945244545626L87.23076923076924,158.96715471347017L87.46153846153845,158.97365503917948L87.6923076923077,158.98014764868074L87.92307692307692,158.98647011827956L88.15384615384616,158.99251052608645L88.38461538461539,158.9986345917399L88.61538461538463,159.00593983831496L88.84615384615385,159.01261119340083L89.07692307692307,159.02022677726987L89.53846153846153,159.03285143849084L90,159.04894296843634L90.46153846153845,159.06794573919723L90.6923076923077,159.08403868925802L90.92307692307692,159.0993179472872L91.15384615384615,159.11141356619095L91.38461538461539,159.12170567659402L91.61538461538461,159.12961185521783L91.84615384615385,159.13800874624246L92.07692307692307,159.14615945599812L92.3076923076923,159.15382719278645L92.53846153846153,159.16097375947965L92.76923076923077,159.16850351918072L93,159.17568805646445L93.23076923076923,159.18231611422354L93.46153846153847,159.1870852950964L94.15384615384615,159.1977988919415L94.38461538461539,159.20606695223276L94.61538461538461,159.2144362756841L94.84615384615385,159.22292287740686L95.07692307692308,159.23125048525188L95.53846153846153,159.24077263448328L95.76923076923076,159.2472328417467L96,159.25446266912672L96.23076923076923,159.26187716441578L96.46153846153847,159.26895965320927L96.6923076923077,159.27564502034062L96.92307692307693,159.28339815953007L97.15384615384615,159.29128096374868L97.38461538461539,159.2987592147713L97.61538461538461,159.30540802151603L97.84615384615384,159.31189915200636L98.07692307692308,159.31843215512484L98.3076923076923,159.32359501944876L98.53846153846155,159.3294451645807L98.76923076923076,159.33484173975071L99,159.34086500123334L99.23076923076923,159.34768374056551L99.46153846153847,159.35349268273887L99.6923076923077,159.3598599120271L100.15384615384616,159.36837192300888L100.38461538461537,159.37462651250755L100.61538461538461,159.38062397387785L100.84615384615384,159.38638131684542L101.07692307692308,159.39205930749463L101.3076923076923,159.39661898250947L101.53846153846155,159.40166951872612L101.76923076923077,159.40635831802257L102.00000000000001,159.411339433703L102.23076923076923,159.41605795453057L102.46153846153845,159.420948299132L102.6923076923077,159.4248979436259L102.92307692307692,159.4285163869419L103.15384615384616,159.43277889972137L103.38461538461539,159.43800810431202L103.61538461538461,159.4430328867665L103.84615384615384,159.4476000410868L104.07692307692308,159.45187294249146L104.3076923076923,159.45679259918413L104.53846153846155,159.46090335024763L104.76923076923077,159.46518327545417L105,159.46928943355746L105.23076923076923,159.47223287645173L105.46153846153845,159.47615732607795L105.6923076923077,159.48084158053888L105.92307692307692,159.4854752528992L106.15384615384616,159.48972643284142L106.38461538461539,159.49436116085786L106.61538461538463,159.4986716164945L106.84615384615384,159.50172741408664L107.07692307692307,159.50588970571795L107.3076923076923,159.5096797190419L107.53846153846153,159.51423171035498L107.76923076923077,159.51889183174077L108,159.52391361136628L108.23076923076924,159.52872800086485L108.6923076923077,159.53467027805067L108.92307692307692,159.53948960579527L109.15384615384615,159.54260024300922L109.38461538461539,159.5447139260925L109.61538461538461,159.54770677899953L109.84615384615385,159.55138676045806L110.07692307692307,159.55516169475598L110.3076923076923,159.5591213985345L110.53846153846153,159.56225735233411L110.76923076923077,159.56539761215342L111,159.56880048789156L111.23076923076924,159.57252943334433L111.46153846153847,159.57475734840307L111.69230769230768,159.5774765318064L111.92307692307692,159.58071839028983L112.15384615384615,159.58439721484524L112.38461538461539,159.58827658675744L112.61538461538461,159.59200824933106L112.84615384615385,159.59454778866626L113.07692307692308,159.597430219652L113.30769230769232,159.60079240335224L113.53846153846153,159.6044883494297L113.76923076923076,159.60697000033156L114,159.60963955297873L114.46153846153847,159.6141844914842L114.6923076923077,159.61827170519055L114.92307692307693,159.62190932162687L115.15384615384615,159.62508659222394L115.38461538461539,159.6282697749384L115.84615384615385,159.6327731596054L116.07692307692308,159.63656132683337L116.3076923076923,159.64016129857683L116.53846153846155,159.64367912094713L116.76923076923076,159.64695696976517L117,159.65009285992605L117.46153846153847,159.65387129883788L117.92307692307693,159.6583435248836L118.15384615384616,159.66252619367592L118.38461538461537,159.66622378379608L118.84615384615384,159.6703956666077L119.07692307692308,159.67408919641827L119.3076923076923,159.67782615607652L119.76923076923077,159.68256217286932L120,159.68632190146525L120.23076923076923,159.68986642247074L120.46153846153845,159.69304339167311L120.6923076923077,159.69529583283185L120.92307692307692,159.69726998616733L121.15384615384616,159.6995583616085L121.38461538461539,159.70187911589719L121.61538461538461,159.7042010682266L122.07692307692308,159.70733113197767L122.3076923076923,159.70993708707587L122.53846153846155,159.7123764365991L122.99999999999999,159.71580186275398L123.46153846153845,159.71964763764103L123.6923076923077,159.72286058599252L123.92307692307692,159.72559352922414L124.15384615384616,159.72805496253085L124.38461538461539,159.7305245942271L124.61538461538463,159.73326361401706L124.84615384615384,159.73610774628798L125.07692307692307,159.73856210788665L125.3076923076923,159.74101717628477L125.76923076923077,147.12093957171214L126,140.49073465464284L126.23076923076924,137.31989087504445L126.46153846153845,136.27086928121895L126.6923076923077,136.45127023185339L126.92307692307692,137.20357533269333L127.15384615384616,138.1626232470736L127.38461538461539,139.08801690048693L127.61538461538461,139.82126642594224L127.84615384615385,140.34710242023485L128.07692307692307,140.73296166028467L128.30769230769232,141.01093193738285L128.53846153846155,141.18910614216048L128.76923076923077,141.28439408822544L129,141.35556770515473L129.23076923076923,141.43464553392602L129.46153846153845,141.56540442185153L129.69230769230768,141.77532344701183L129.92307692307693,142.08477896672227L130.15384615384616,142.49449287351646L130.3846153846154,142.9923287887267L130.6153846153846,143.55845543280412L130.84615384615384,144.18225876737012L131.07692307692307,144.83564609762328L131.30769230769232,145.49533121544627L131.53846153846155,146.14905266780397L131.76923076923077,146.7886418499763L132,147.4087010685984L132.23076923076923,148.00662712784364L132.46153846153845,148.56704090392012L132.69230769230768,149.08547768046077L132.92307692307693,149.569160688761L133.3846153846154,150.1553779232109L133.6153846153846,150.64061594910862L133.84615384615384,151.0574539065263L134.3076923076923,151.55563174572268L134.53846153846155,151.97820657369954L134.76923076923077,152.3429029359883L135,152.67394244085185L135.23076923076923,152.97779473690267L135.46153846153845,153.2677899682028L135.69230769230768,153.5383250654748L135.92307692307693,153.785635021335L136.15384615384616,154.01240221679575L136.3846153846154,154.22195638321966L136.6153846153846,154.41583277969707L136.84615384615384,154.59842518897526L137.07692307692307,154.76966905553144L137.53846153846155,155.00192612493527L137.76923076923077,155.20505772662673L138,155.39232863998285L138.23076923076923,155.5701003086429L138.46153846153848,155.74568614596927L138.69230769230768,155.91739006128248L139.15384615384616,156.15110160012122L139.3846153846154,156.35569732194045L139.6153846153846,156.53832970145285L139.84615384615384,156.70503367451772L140.0769230769231,156.8599255757697L140.3076923076923,157.00576398074L140.53846153846155,157.14417587101084L140.76923076923077,157.27586274264934L141,157.39874007815962L141.23076923076923,157.5159711575851L141.46153846153845,157.62502471912882L141.9230769230769,157.75880638653516L142.15384615384616,157.87310528258803L142.3846153846154,157.9707575052996L142.6153846153846,158.05646318690458L142.84615384615384,158.13306304729053L143.0769230769231,158.20452927788645L143.30769230769232,158.27395111953456L143.76923076923077,158.36330510648145L144,158.44055352871666L144.23076923076923,158.50859164916145L144.46153846153845,158.56977304488385L145.6153846153846,158.70843287238728L145.84615384615384,158.81055528208438L146.30769230769232,158.90599269061363L146.53846153846155,158.98014402187945L146.76923076923077,159.03925932308107L147,159.0905713772019L147.23076923076923,159.13548436320718L147.46153846153845,159.17639972845308L147.6923076923077,159.21385305083638L147.92307692307693,159.24590129338898L148.15384615384616,159.27847994648067L148.3846153846154,159.30917573414558L148.6153846153846,159.3351597032035L148.84615384615384,159.36156737073946L149.07692307692307,159.38658910551482L149.30769230769232,159.4097556445528L149.53846153846155,159.432835017057L149.76923076923077,159.45591436616556L150,159.47683338832405L150.46153846153845,159.50047755221186L150.6923076923077,159.52115067990056L150.92307692307693,159.5382281935571L151.3846153846154,159.5649260854718L151.61538461538464,159.58891679772447L151.84615384615384,159.60847367656L152.07692307692307,159.61411749229077L152.3076923076923,159.62329297280186L152.53846153846152,159.63643921785712L152.76923076923077,159.65204161031937L153,159.66667516224106L153.23076923076923,159.6835333667656L153.46153846153845,159.70086399309778L153.6923076923077,159.7114554641043L153.92307692307693,159.7233904316823L154.15384615384616,159.73775988201015L154.3846153846154,159.7524524770958L154.61538461538458,159.76760670743536L154.84615384615387,159.78284318405048L155.07692307692307,159.78920462442215L155.3076923076923,159.7981600202433L155.53846153846152,159.80852658212416L155.76923076923077,159.80618879430003L156.23076923076923,159.8163805146421L156.46153846153845,159.82966456810698L156.6923076923077,159.84318238821936L156.92307692307693,159.85709963256684L157.15384615384616,159.87044272485662L157.3846153846154,159.8844342905262L157.6153846153846,159.89813876941946L157.84615384615387,159.91055876978237L158.0769230769231,159.9224250016689L158.3076923076923,159.93406588857215L158.53846153846152,159.94512765205627L158.76923076923077,159.95613312751811L159,159.96685034380087L159.23076923076923,159.97734821157184L159.69230769230768,159.9895135735825L159.92307692307693,160.00109710275535L160.15384615384616,160.01178060324273L160.3846153846154,160.02173417419957L160.6153846153846,160.03082516123945L160.84615384615387,160.0390817076678L161.0769230769231,160.04709443914817L161.30769230769232,160.05441974246892L161.53846153846152,160.06239364802204L161.76923076923075,160.06963522913944L162,160.06353418041996L162.23076923076923,160.06257862021008L162.46153846153845,160.06484548117044L162.69230769230768,160.0690768521041L162.92307692307693,160.07466343463068L163.15384615384616,160.08017203191554L163.6153846153846,160.08780104722544L163.84615384615384,160.0947236661833L164.0769230769231,160.10089219858395L164.30769230769232,160.1059524112136L164.53846153846155,160.11110482175295L164.76923076923075,160.11647020044683L165,160.12205527798173L165.23076923076923,160.12732864419667L165.69230769230768,160.13498029492146L166.15384615384616,160.14432594136775L166.3846153846154,160.15164403510104L166.6153846153846,160.1583868526936L166.84615384615384,160.1646040927211L167.0769230769231,160.16977290922532L167.30769230769232,160.1749611609391L167.53846153846155,160.17959731679247L167.76923076923077,160.18399721951482L168.00000000000003,160.18890130372654L168.46153846153845,160.19451998438072L168.69230769230768,160.19923668635L168.9230769230769,160.20360553744337L169.15384615384616,160.20773664621433L169.6153846153846,160.21302372790853L169.84615384615384,160.21755473253526L170.0769230769231,160.22147854068677L170.53846153846155,160.22643835701012L170.76923076923077,160.2305145615513L170.99999999999997,160.23372745674268L171.23076923076925,160.236435580132L171.46153846153845,160.23878311442533L171.69230769230768,160.2409628101908L171.9230769230769,160.24332903437156L172.15384615384616,160.2457833039412L172.3846153846154,160.24845576624514L172.6153846153846,160.2510146887437L172.84615384615384,160.25338680421598L173.07692307692307,160.2557591046139L173.30769230769232,160.25817101271417L173.53846153846155,160.2609309542104L173.76923076923077,160.26385679498134L174,160.26605872360307L174.69230769230768,160.26992098283864L174.9230769230769,160.27260928951233L175.15384615384613,160.27541691749087L175.3846153846154,160.2781478446054L175.6153846153846,160.28058289449106L175.84615384615384,160.28288893296914L176.07692307692307,160.28494554397224L176.30769230769232,160.286789949918L176.53846153846155,160.28847891731837L176.76923076923077,160.29030282501824L177,160.29214379800933L177.23076923076925,160.29418207718533L177.46153846153848,160.29617404972944L177.6923076923077,160.297848209679L178.15384615384613,160.30067601823475L178.3846153846154,134.8241601538985L178.6153846153846,123.1708016551387L178.84615384615384,119.45025223886626L179.07692307692307,120.16685098862227L179.30769230769232,123.2983020798788L179.53846153846155,127.60456969098978L179.76923076923077,132.30353026570197L180,136.95509193094995L180.23076923076923,141.257275355554L180.46153846153848,145.06045445852172L180.6923076923077,148.30345753083424L180.9230769230769,150.99490510103254L181.15384615384613,153.19480196641177L181.3846153846154,154.9338847724249L181.6153846153846,156.23699465450457L181.84615384615384,157.15507198768577L182.07692307692307,157.73433656225146L182.3076923076923,158.0645538720353L182.53846153846155,158.23071648793598L182.76923076923077,158.2698411905164L183,158.2123152732705L183.46153846153848,158.00425902235727L183.92307692307693,157.74144225310758L184.6153846153846,157.52717047328636L184.84615384615384,157.42215556846085L185.07692307692307,157.39889858224512L185.3076923076923,157.43942366656594L185.53846153846155,157.52824293309246L185.76923076923077,157.6543389093181L186,157.8042890561944L186.23076923076923,157.96935803709562L186.46153846153845,158.14047177769893L186.6923076923077,158.3125826334518L186.92307692307693,158.47746397566354L187.15384615384616,158.63373154435757L187.38461538461536,158.77701242207195L187.61538461538464,158.90505352010823L188.07692307692307,159.02924929439777L188.3076923076923,159.11210254982237L188.53846153846155,159.17130095617682L188.76923076923077,159.20899526283083L189,159.22996735467385L189.23076923076923,159.2437822909965L189.46153846153845,159.25064522250108L189.6923076923077,159.257656226624L189.92307692307693,159.2626232499837L190.15384615384616,159.26645319865264L190.3846153846154,159.27080586675476L190.61538461538464,159.277368396174L190.84615384615387,159.28571074150705L191.3076923076923,159.3035214859625L191.53846153846152,159.32283905691548L191.76923076923077,159.34146985845842L192,159.36293061094275L192.23076923076923,159.38405845852589L192.6923076923077,159.41566061930808L192.92307692307693,159.44515891482965L193.15384615384616,159.47381474306144L193.3846153846154,159.49605929040342L193.6153846153846,159.5168774144312L193.84615384615387,159.5378839610981L194.0769230769231,159.5566722405425L194.3076923076923,159.57186054629187L194.53846153846152,159.58444798960636L194.76923076923077,159.59819464505688L195,159.6104035013539L195.23076923076923,159.62087466592052L195.46153846153845,159.63164996289072L195.69230769230768,159.64152034901025L196.15384615384616,159.65334876700254L196.3846153846154,159.6634329099894L196.6153846153846,159.6719354734304L196.84615384615387,159.680934795468L197.0769230769231,159.68832649079337L197.3076923076923,159.69570124266426L197.53846153846152,159.70263797115015L197.76923076923075,159.7100157861157L198,159.7177163165628L198.46153846153845,159.72754036740827L198.69230769230768,159.7359350046895L198.92307692307693,159.74460973162653L199.15384615384616,159.75075728135283L199.3846153846154,159.75736307274576L199.6153846153846,159.76331103004327L199.84615384615387,159.7692268467656L200.0769230769231,159.77590926313306L200.30769230769232,159.78221290006582L200.53846153846152,159.7878859106182L200.76923076923075,159.79383607559998L201,159.8000187469556L201.23076923076923,159.8065170419399L201.46153846153845,159.81302434744632L201.69230769230768,159.81980225170966L201.92307692307693,159.82655752191678L202.15384615384616,159.83328324902442L202.3846153846154,159.8401777868012L202.84615384615384,159.84925898134674L203.0769230769231,159.85659688679718L203.30769230769232,159.86426305481075L203.53846153846155,159.87028767671967L203.76923076923075,159.8759828529979L204.00000000000003,159.88249951300014L204.23076923076923,159.88877506996658L204.46153846153845,159.89465798919858L204.69230769230768,159.8991070648974L204.9230769230769,159.90252820237336L205.15384615384616,159.90575537054238L205.3846153846154,159.91002154548246L205.6153846153846,159.9146941093922L205.84615384615384,159.92003093725728L206.0769230769231,159.92534999209596L206.30769230769232,159.93055223862555L206.53846153846155,159.93621734101256L206.76923076923077,159.94194309359546L206.99999999999997,159.9474979627692L207.23076923076923,159.95285606912157L207.46153846153845,159.95837351129552L207.69230769230768,159.96386936681222L207.9230769230769,159.96904097424002L208.3846153846154,159.97681371769394L208.6153846153846,159.98333689376005L208.84615384615384,159.9893175546945L209.0769230769231,159.99458733597035L209.30769230769232,159.9991938983229L209.53846153846155,160.00367403931563L209.76923076923077,160.00836840433348L210,160.0128340486977L210.46153846153845,160.0187361576732L210.69230769230768,160.02338289794238L210.9230769230769,160.02839452697256L211.15384615384616,160.03237271927034L211.3846153846154,160.03660310552584L211.6153846153846,160.04104074982445L211.84615384615384,160.04577414264682L212.07692307692307,160.05074705090004L212.30769230769232,160.05585855650068L212.53846153846155,160.06074751858213L212.76923076923077,160.06407171590072L213,160.06819944443072L213.23076923076925,160.0723327265433L213.46153846153848,160.07657625690788L213.69230769230768,160.0808843447797L213.9230769230769,160.08563886617725L214.15384615384613,160.09006633698186L214.3846153846154,160.0944426399641L214.6153846153846,160.09888319841247L214.84615384615384,160.10091982938127L215.07692307692307,160.10410965260053L215.30769230769232,160.10791591814325L215.53846153846155,160.11211268962666L215.76923076923077,160.11635573315277L216,160.12068286737755L216.23076923076923,160.12519582521404L216.46153846153848,160.12993225700546L216.6923076923077,160.13435374482967L216.9230769230769,160.13870056088916L217.15384615384613,160.14309005508514L217.6153846153846,160.1486658975572L217.84615384615384,160.15376893594046L218.07692307692307,160.15863029634735L218.3076923076923,160.16264766846658L218.53846153846155,160.16674261111572L218.76923076923077,160.17029709436898L219,160.17397560694133L219.46153846153848,160.1790391635903L219.6923076923077,160.18339062469704L219.92307692307693,160.18722286230462L220.15384615384613,160.1911277789785L220.38461538461542,160.194798764901L220.6153846153846,160.1983797880998L220.84615384615384,160.20200955414177L221.07692307692307,160.20565019194504L221.53846153846155,160.21020090720134L221.76923076923077,160.2142597580779L222,160.21813672397957L222.23076923076923,160.22185720138046L222.46153846153848,160.2253727221788L222.92307692307693,160.2300890610831L223.15384615384616,160.23417798599542L223.38461538461536,160.23802062334275L223.6153846153846,160.24167869203643L223.84615384615384,160.24465531806888L224.07692307692307,160.2473627879989L224.3076923076923,160.25022743887516L224.76923076923077,160.25455798193266L225,160.25860828341624L225.23076923076923,160.26224752772796L225.46153846153845,160.26521686185404L225.6923076923077,160.2681320044989L225.92307692307693,160.27107983323413L226.15384615384616,160.27387211833067L226.3846153846154,160.27664548930815L226.61538461538464,160.27909274347815L226.84615384615384,160.2818465004889L227.07692307692307,160.2847369945906L227.3076923076923,160.28711163025272L227.53846153846152,160.2892219382161L227.76923076923077,160.29188492858395L228,160.29458149433344L228.23076923076923,160.29691736793643L228.46153846153845,160.29944491107756L228.6923076923077,160.3018869339956L228.92307692307693,160.30462896810263L229.15384615384616,160.30763443916993L229.3846153846154,160.31033047367742L229.61538461538458,160.31276874901258L229.84615384615387,160.31527280795325L230.07692307692307,160.3174657371181L230.3076923076923,160.31970419456695L230.53846153846152,160.32217386672252L230.76923076923077,160.3243400873937L231,160.32626853663365L231.23076923076923,160.32813032652305L231.46153846153845,160.33016021416353L231.6923076923077,160.3325231183786L231.92307692307693,160.33488974734547L232.15384615384616,160.3372104338128L232.3846153846154,160.3395678876991L232.6153846153846,160.34181574621363L232.84615384615387,160.34380306440278L233.0769230769231,160.34589790052422L233.3076923076923,160.34811188698288L233.53846153846152,160.35016978714967L233.76923076923077,160.35219012188648L234,160.35410656081822L234.46153846153845,160.35649046844733L234.69230769230768,160.35843214880956L234.92307692307693,160.36054126913268L235.15384615384616,160.36268835308556L235.6153846153846,160.3656439545298L235.84615384615387,160.3682054659886L236.0769230769231,160.37042095494698L236.30769230769232,160.3724124337092L236.53846153846152,160.3743703942592L236.76923076923075,160.37624227129353L237,160.37809452000113L237.23076923076923,160.37975988464538L237.46153846153845,146.43183974051846L237.92307692307693,142.19621938351506L238.15384615384616,141.21984890846818L238.3846153846154,141.9128824847571L238.6153846153846,143.28961305484964L238.84615384615384,144.83116385466604L239.0769230769231,146.2849668678339L239.53846153846155,147.90120380674523L239.76923076923075,149.04819463876265L240,149.90367556000902L240.46153846153845,150.9578764504935L240.69230769230768,151.82990873041044L240.9230769230769,152.52131807479273L241.15384615384616,153.0638821755773L241.3846153846154,153.50614639945564L241.84615384615384,154.01298042487292L242.0769230769231,154.4577980560948L242.30769230769232,154.8756368103449L242.76923076923077,155.4384654444514L243.00000000000003,155.91493152760722L243.23076923076923,156.32149838264198L243.46153846153845,156.6734709237974L243.69230769230768,156.97553438947727L243.9230769230769,157.2347632565647L244.15384615384616,157.45461015432556L244.3846153846154,157.64297394959726L244.6153846153846,157.81090514719193L244.84615384615384,157.961781041978L245.0769230769231,158.09798864173567L245.30769230769232,158.2264885382893L245.53846153846155,158.34690372427738L245.76923076923077,158.45917138353522L245.99999999999997,158.57008777632L246.23076923076925,158.67882881831608L246.46153846153845,158.78163306549803L246.9230769230769,158.91714376264906L247.15384615384616,159.03115647738363L247.3846153846154,159.13018001684117L247.6153846153846,159.21285410753936L248.07692307692307,159.30054972624376L248.30769230769232,159.36979720517263L248.53846153846155,159.42946134088632L248.76923076923077,159.4815226440322L249,159.5271293937705L249.23076923076925,159.5701077277821L249.46153846153848,159.60984821996354L249.69230769230768,159.64761707170112L249.9230769230769,159.6831129446985L250.15384615384613,159.72005310930436L250.3846153846154,159.75870312130118L250.6153846153846,159.79633895518145L250.84615384615384,159.8354495306337L251.07692307692307,159.87173076182475L251.30769230769232,159.9074562234275L251.53846153846155,159.94113983223934L251.76923076923077,159.97207425649117L252,159.99994051823109L252.23076923076925,160.02644220648028L252.46153846153848,160.0506656517961L252.6923076923077,160.07329761306892L253.15384615384613,160.10002640947698L253.3846153846154,160.12156960135968L253.84615384615384,160.14291825805415L254.07692307692307,160.16042221191654L254.30769230769232,160.17637007162486L254.53846153846155,160.1905655492331L254.76923076923077,160.201176886769L255,160.2112256155843L255.23076923076923,160.2206752036419L255.6923076923077,160.23216182902982L255.9230769230769,160.2424074108334L256.15384615384613,160.24927269406888L256.61538461538464,160.26034276098852L256.84615384615387,160.27122127333516L257.0769230769231,160.2807368232508L257.3076923076923,160.2900560787087L257.7692307692308,160.3030561414546L258,160.31396807908496L258.2307692307692,160.32379679922315L258.46153846153845,160.3329041667876L258.6923076923077,160.34124225296256L258.9230769230769,160.34957662392443L259.15384615384613,160.35848081754375L259.38461538461536,160.36605670837596L259.61538461538464,160.373480634618L259.84615384615387,160.3801456990031L260.0769230769231,160.38689658546483L260.3076923076923,160.39333182386073L260.53846153846155,160.39851950782355L260.7692307692308,160.4032698587699L261,160.4084115075922L261.2307692307692,160.41357863613916L261.46153846153845,160.41896663815243L261.6923076923077,160.42341101051196L261.9230769230769,160.42769565023568L262.15384615384613,160.432161313411L262.38461538461536,160.43537095152686L262.61538461538464,160.4392306764542L262.84615384615387,160.44362474439257L263.0769230769231,160.44832340724622L263.3076923076923,160.4531406870327L263.53846153846155,160.45773365887325L263.7692307692308,160.46225715047422L264,160.46663980214666L264.2307692307692,160.47084140225843L264.46153846153845,160.4743909174153L264.9230769230769,160.47973886388775L265.15384615384613,160.48416677433826L265.38461538461536,160.4883163433207L265.61538461538464,160.49217289399158L265.84615384615387,160.49577589404666L266.0769230769231,160.4993480028309L266.53846153846155,160.50419667470226L266.7692307692308,160.5082899121726L267,160.51209110710366L267.2307692307692,160.51589787419644L267.46153846153845,160.51919394816923L268.15384615384613,160.52433572083476L268.38461538461536,160.52852384803913L268.6153846153846,160.5319300067102L268.84615384615387,160.53534943292587L269.0769230769231,160.5386318053606L269.3076923076923,160.54142704358878L269.53846153846155,160.54400923591473L269.7692307692308,160.546761345407L270,160.5497021147851L270.2307692307692,160.55231279059802L270.46153846153845,160.55450381374905L270.6923076923077,160.55694005809158L270.9230769230769,160.5593698849143L271.15384615384613,160.56218176228606L271.38461538461536,160.5647225778595L271.6153846153846,160.56722450318256L271.84615384615387,160.56950363337208L272.0769230769231,160.57170946490294L272.3076923076923,160.57373392257193L272.53846153846155,160.57590838259136L272.7692307692308,160.57823404227736L273,160.5807345271682L273.2307692307692,160.58329471981705L273.46153846153845,160.58589271436927L273.6923076923077,160.58820981006122L273.92307692307696,160.59058140972704L274.38461538461536,160.5943975637468L274.84615384615387,160.5981865893236L275.0769230769231,160.60141038610035L275.3076923076923,160.60411333162594L275.53846153846155,160.6066097662173L275.7692307692308,160.6088750887922L276.2307692307692,160.61186908114567L276.6923076923077,160.6152815638427L276.92307692307696,160.61791856290475L277.1538461538462,160.62015802872034L277.38461538461536,160.62233702341555L277.6153846153846,160.62454295916893L277.8461538461538,160.62670038905952L278.0769230769231,160.6288265452815" style="fill: none;" fill="none"></path></g></g></g></g><g opacity="0.2"><g><g><g><path stroke="rgb(255, 112, 67)" stroke-width="2px" d="M23.307692307692307,40.18976775082675L23.538461538461537,44.108007084239624L24,51.74375161257657L24.230769230769234,55.459073153409086L24.46153846153846,59.104471466758035L24.69230769230769,62.678897164084695L24.923076923076923,66.18180240284313L25.153846153846153,69.61239242553711L25.384615384615387,72.96974901719527L25.615384615384613,76.2532548904419L25.846153846153847,79.462439363653L26.076923076923077,82.59680860692805L26.307692307692307,85.65600768002598L26.53846153846154,88.63991312547164L26.769230769230766,91.54801568118008L27,94.38023047013716L27.23076923076923,97.13663851131093L27.461538461538463,99.8171587857333L27.692307692307693,102.42219638824463L27.92307692307692,104.95177446712148L28.153846153846153,107.4059933315624L28.384615384615383,109.78587922182949L28.615384615384617,112.09164047241211L28.846153846153847,114.32353943044488L29.076923076923077,116.48242872411554L29.307692307692307,118.56904138218272L29.53846153846154,120.58399469202216L30,124.40245337919755L30.23076923076923,126.20813083648682L30.46153846153846,127.94604557210748L30.692307692307693,129.61746302517977L30.923076923076923,131.22347309372643L31.153846153846157,132.7650113539262L31.384615384615383,134.2435052828355L31.615384615384613,135.66052317619324L31.846153846153847,137.0173401182348L32.07692307692308,138.31547810814598L32.30769230769231,139.55614085630938L32.53846153846154,140.74088315530255L33,142.94815427606756L33.23076923076923,143.97201412374324L33.46153846153846,144.9501773444089L33.69230769230769,145.87775772268122L33.92307692307692,146.7574906132438L34.15384615384615,147.59237757596102L34.38461538461539,148.38282563469627L34.61538461538462,149.12907205928457L34.84615384615385,149.83416663516653L35.07692307692307,150.49821931665593L35.30769230769231,151.1253697872162L35.53846153846154,151.71491588245738L35.769230769230774,152.26899978247556L36,152.78670809485695L36.23076923076923,153.27376808903435L36.46153846153846,153.7274675586007L36.69230769230769,154.1527891700918L36.92307692307693,154.546287688342L37.15384615384615,154.90444891561162L37.38461538461539,155.2313508066264L37.61538461538461,155.54074150865728L37.84615384615385,155.81178805502978L38.07692307692307,156.0403015721928L38.30769230769231,156.24977804314005L38.53846153846154,156.42893412980166L38.76923076923077,156.58927356113088L39,156.72970306331462L39.23076923076923,156.85105066949671L39.69230769230769,157.04810133847323L39.92307692307692,157.1266135410829L40.15384615384615,157.1956137310375L40.38461538461538,157.25944462147626L40.61538461538461,157.31745420260862L40.84615384615385,157.36752922968432L41.07692307692308,157.41933410817927L41.30769230769231,157.4701141931794L41.53846153846154,157.52257204597646L41.769230769230774,157.57442563230342L42.00000000000001,157.6220884160562L42.230769230769226,157.66615067828786L42.69230769230769,157.7730069810694L42.92307692307692,157.82452202385122L43.15384615384615,157.87441065907478L43.38461538461539,157.91710741411555L43.61538461538462,157.96670573137024L43.84615384615385,158.01410978490657L44.07692307692308,158.05973359129646L44.307692307692314,158.09500505436552L44.53846153846153,158.13257880644366L44.76923076923077,158.16391385685313L45,158.19825938885862L45.230769230769226,158.230229570107L45.46153846153846,158.25765931335363L45.69230769230769,158.27984042601153L45.92307692307693,158.30672980167648L46.15384615384615,158.33195033127612L46.38461538461539,158.35672718557444L46.61538461538461,158.3782543594187L46.84615384615384,158.39583885127848L47.07692307692307,158.40829575874588L47.30769230769231,158.42619468136266L47.53846153846154,158.4388379806822L47.76923076923077,158.4511649202217L48,158.45778532732618L48.23076923076923,158.47196967493403L48.46153846153847,158.48179877075282L48.69230769230769,158.49367504228246L48.92307692307692,158.506991811774L49.15384615384615,158.516883359714L49.38461538461538,158.52509931000796L49.61538461538461,158.5319147895683L49.84615384615385,158.53610679778185L50.07692307692308,158.54242314262822L50.30769230769231,158.55179047855464L50.53846153846154,158.55844030326062L50.769230769230774,158.56511134722015L51.00000000000001,158.57171415198934L51.230769230769226,158.57555363124067L51.46153846153846,158.57968873327428L51.69230769230769,158.5854229954156L51.92307692307692,158.5915474024686L52.15384615384615,158.59643723477018L52.38461538461539,158.6017034676942L52.61538461538461,158.60735429958865L53.07692307692308,158.6134509769353L53.307692307692314,158.61837456714022L53.53846153846153,158.6243755167181L54,158.63461887023666L54.230769230769226,158.639087211002L54.46153846153846,158.64405661550435L54.69230769230769,158.64854810454628L54.92307692307693,158.6535281186754L55.15384615384615,158.65667073835027L55.38461538461539,158.65888790921733L55.61538461538462,158.6619034544988L55.84615384615384,158.6626538444649L56.07692307692307,158.6665490242568L56.30769230769231,158.66874594038183L56.53846153846154,158.67411826957357L56.76923076923077,158.6775398742069L57,158.6817391162569L57.46153846153847,158.68785026127642L57.69230769230769,158.69048361886632L57.92307692307693,158.69437542286786L58.15384615384615,158.6975795301524L58.61538461538461,158.70457609675148L58.84615384615385,158.70453004132617L59.07692307692308,158.70941360430285L59.30769230769231,158.71246049620888L59.53846153846154,158.71680103919724L59.769230769230774,158.7216691699895L60,158.72401172735474L60.230769230769226,158.72783215750349L60.46153846153846,158.73180570385674L60.69230769230769,158.734233379364L60.92307692307692,158.73751826448873L61.15384615384615,158.74106670238754L61.38461538461539,158.74335138906133L61.61538461538461,158.74680795723742L61.84615384615385,158.74947531385854L62.07692307692308,158.75283181396398L62.307692307692314,158.75526431202888L62.76923076923077,158.76183914596385L63,158.7653842080723L63.230769230769226,158.76914845542476L63.69230769230769,158.77707432887772L63.92307692307693,158.7795352800326L64.15384615384616,158.78334534168243L64.38461538461539,158.78420496257868L64.84615384615384,158.7872841656208L65.07692307692308,158.78894071416423L65.3076923076923,158.79118223894727L65.53846153846153,158.79337216236374L65.76923076923077,158.7971962094307L66,158.80039645866916L66.23076923076923,158.8008647290143L66.46153846153847,158.80144102465022L66.6923076923077,158.803784546527L66.92307692307692,158.80640584772283L67.15384615384615,158.80980454520747L67.38461538461539,158.8134024143219L68.07692307692308,158.82174664464864L69,158.83190897919914L69.23076923076924,158.8349377865141L69.46153846153845,158.8379854018038L69.6923076923077,158.84016061641952L69.92307692307692,158.84127390384674L70.15384615384615,158.8451145887375L70.61538461538461,158.8499043529684L70.84615384615385,158.85258690064603L71.07692307692308,158.85544884746724L71.3076923076923,158.85778778791428L71.53846153846155,143.44379167123273L72,148.61705822294408L72.23076923076923,150.78518078543922L72.46153846153847,152.66904733397743L72.6923076923077,154.23468680815265L72.92307692307692,155.42125733874062L73.15384615384616,156.21890692277387L73.38461538461539,156.76091610301626L73.61538461538461,157.1973903612657L73.84615384615385,157.60219729488546L74.07692307692308,157.87962408499286L74.3076923076923,157.98193560947072L74.53846153846153,157.94863657246935L74.76923076923077,157.82653881744906L75.23076923076923,157.49430028416893L75.46153846153847,157.35282332246953L75.6923076923077,157.25514820489016L75.92307692307692,157.20029836351222L76.15384615384615,157.20509632609108L76.38461538461539,157.25389675118706L76.61538461538461,157.34667070345446L76.84615384615385,157.47627645730972L77.07692307692308,157.61103800751945L77.30769230769229,157.77029863270846L77.53846153846153,157.93136168880895L78,158.20843667333776L78.23076923076923,158.31927664984357L78.46153846153847,158.39576530727473L78.6923076923077,158.44802856987172L78.92307692307693,158.47168104486033L79.15384615384615,158.4819395894354L79.38461538461539,158.47313408147204L79.61538461538461,158.4641650888053L79.84615384615384,158.45202164758336L80.07692307692308,158.4485221586444L80.3076923076923,158.44239341128957L80.53846153846155,158.44404827193782L80.76923076923076,158.46392468430778L81,158.49256079034373L81.23076923076923,158.5267208950086L81.46153846153847,158.5631512186744L81.6923076923077,158.59976190599528L81.92307692307692,158.63938548619097L82.15384615384616,158.68072324449366L82.38461538461537,158.7116192010316L82.84615384615384,158.76990101554176L83.07692307692308,158.78927033597773L83.3076923076923,158.80649651180613L83.53846153846155,158.8141858388077L83.76923076923077,158.82843625545502L84.00000000000001,158.83927881175822L84.23076923076923,158.84736527638003L84.46153846153845,158.8577786250548L84.92307692307692,158.8790940886194L85.15384615384616,158.89654065533117L85.38461538461539,158.91144597530365L85.84615384615384,158.9331971569495L86.07692307692308,158.9420224373991L86.3076923076923,158.94963797926903L86.53846153846153,158.957874184305L86.76923076923077,158.96207173845985L87,158.9732137755914L87.23076923076924,158.978708115491L87.46153846153845,158.98340552774343L87.6923076923077,158.9898865629326L87.92307692307692,158.9959538226778L88.15384615384616,159.00157113779676L88.38461538461539,159.00782069022006L88.61538461538463,159.01689770817757L88.84615384615385,159.02261822602966L89.07692307692307,159.0316501530734L89.53846153846153,159.0517884303223L90,159.07308026335457L90.46153846153845,159.09644989533857L90.6923076923077,159.1081781143492L90.92307692307692,159.122236834331L91.15384615384615,159.12955699454653L91.38461538461539,159.13714384219864L91.61538461538461,159.1414711231535L91.84615384615385,159.15060408277944L92.07692307692307,159.1583855206316L92.3076923076923,159.16532879796895L92.53846153846153,159.17169360951945L92.76923076923077,159.17979815873232L93,159.18646486239L93.23076923076923,159.1922582008622L93.46153846153847,159.19423906640574L94.15384615384615,159.21386928720906L94.38461538461539,159.21846904266965L94.61538461538461,159.22699026086113L94.84615384615385,159.23565277999097L95.07692307692308,159.24374189701948L95.53846153846153,159.25505585833028L95.76923076923076,159.2569231526418L96,159.2653074101968L96.23076923076923,159.27299890734932L96.46153846153847,159.27958338639954L96.6923076923077,159.28567307103765L96.92307692307693,159.29502786831424L97.15384615384615,159.30310517007655L97.38461538461539,159.3099765913053L97.61538461538461,159.3153812316331L97.84615384615384,159.3216358477419L98.07692307692308,159.32823165980253L98.3076923076923,159.33133931593463L98.53846153846155,159.33822038227862L98.76923076923076,159.34293660250577L99,159.34989989345723L99.23076923076923,159.35791184956378L99.46153846153847,159.36220609599894L99.6923076923077,159.36941075595942L100.15384615384616,159.38113993948156L100.38461538461537,159.38400839675558L100.61538461538461,159.38962016593325L100.84615384615384,159.39501733129674L101.07692307692308,159.40057629346848L101.3076923076923,159.4034584950317L101.53846153846155,159.4092453230511L101.76923076923077,159.41339151696727L102.00000000000001,159.4188111072237L102.23076923076923,159.42313573577187L102.46153846153845,159.42828381603414L102.6923076923077,159.43082241036674L102.92307692307692,159.43394405191594L103.15384615384616,159.4391726688905L103.38461538461539,159.44585191119802L103.61538461538461,159.4505700604482L103.84615384615384,159.45445077256724L104.07692307692308,159.4582822945985L104.3076923076923,159.46417208422315L104.53846153846155,159.46706947684288L104.76923076923077,159.471603163264L105,159.47544867071238L105.23076923076923,159.47664804079315L105.46153846153845,159.48204400051725L105.6923076923077,159.48786796223033L105.92307692307692,159.4924257614396L106.15384615384616,159.4961032027548L106.38461538461539,159.5013132528825L106.61538461538463,159.50513729994947L106.84615384615384,159.50631111047485L107.07692307692307,159.5121331431649L107.3076923076923,159.5153647390279L107.53846153846153,159.52105969732457L107.76923076923077,159.52588201381943L108,159.53144628080454L108.23076923076924,159.53594958511266L108.6923076923077,159.54358369382945L108.92307692307692,159.5467185974121L109.15384615384615,159.54726619883016L109.38461538461539,159.54788445071742L109.61538461538461,159.55219605836L109.84615384615385,159.5569067326459L110.07692307692307,159.56082409620285L110.3076923076923,159.5650609542023L110.53846153846153,159.56696128303355L110.76923076923077,159.57010800188237L111,159.57390480149877L111.23076923076924,159.5781228515235L111.46153846153847,159.57809922099113L111.69230769230768,159.58155530691147L111.92307692307692,159.58558117801493L112.15384615384615,159.58991545167837L112.38461538461539,159.59409564462575L112.61538461538461,159.59760574319145L112.84615384615385,159.5983570976691L113.07692307692308,159.60175386613065L113.30769230769232,159.60583567890254L113.53846153846153,159.61003226854584L113.76923076923076,159.6106924766844L114,159.6136438819495L114.46153846153847,159.6210018992424L114.6923076923077,159.62440252575007L114.92307692307693,159.62736574628136L115.15384615384615,159.62985249811953L115.38461538461539,159.63304454901L115.84615384615385,159.6395282366059L116.07692307692308,159.64224357767537L116.3076923076923,159.64556125619194L116.53846153846155,159.6489558545026L116.76923076923076,159.65187374299222L117,159.65479669516736L117.46153846153847,159.65953895720568L117.92307692307693,159.66505186395213L118.15384615384616,159.6688001968644L118.38461538461537,159.67177016897634L118.84615384615384,159.67665349082515L119.07692307692308,159.67962949113414L119.3076923076923,159.6834315955639L119.76923076923077,159.68966619805857L120,159.6919614943591L120.23076923076923,159.69518320397898L120.46153846153845,159.69780884547666L120.6923076923077,159.69867449456996L120.92307692307692,159.70023121617058L121.15384615384616,159.70299092477018L121.38461538461539,159.70536024733022L121.61538461538461,159.70768399672076L122.07692307692308,159.71202622760427L122.3076923076923,159.7138460197232L122.53846153846155,159.71603546088392L122.99999999999999,159.72094000198624L123.46153846153845,159.72541629997167L123.6923076923077,159.72768000851977L123.92307692307692,159.7296929440715L124.15384615384616,159.73174711249092L124.38461538461539,159.73422904177144L124.61538461538463,159.73737214370206L124.84615384615384,159.74037394469434L125.07692307692307,159.74224365028468L125.3076923076923,159.74469977888194L125.76923076923077,128.19082316485319L126,130.54542727903888L126.23076923076924,132.56362520564687L126.46153846153845,134.69733689048073L126.6923076923077,136.721871657805L126.92307692307692,138.3320329839533L127.15384615384616,139.60119511864403L127.38461538461539,140.47610738060692L127.61538461538461,140.9211407141252L127.84615384615385,141.1358564116738L128.07692307692307,141.3117505203594L128.30769230769232,141.42788735303012L128.53846153846155,141.45636744932696L128.76923076923077,141.42732600732282L129,141.46232813054866L129.23076923076923,141.55326227708295L129.46153846153845,141.7615427537398L129.69230769230768,142.0902019847523L129.92307692307693,142.54896224628794L130.15384615384616,143.10906373370779L130.3846153846154,143.73908266154203L130.6153846153846,144.40764539892024L130.84615384615384,145.11796376921913L131.07692307692307,145.815727093003L131.30769230769232,146.4848588921807L131.53846153846155,147.12963484634054L131.76923076923077,147.74802562323484L132,148.33878989653155L132.23076923076923,148.90351621671155L132.46153846153845,149.40766156803477L132.69230769230768,149.8631328452717L132.92307692307693,150.29468520121142L133.3846153846154,151.03470377488568L133.6153846153846,151.36847298795527L133.84615384615384,151.68271084265277L134.3076923076923,152.3028985045173L134.53846153846155,152.6120688156648L134.76923076923077,152.88994747942144L135,153.17050169814718L135.23076923076923,153.43357318097895L135.46153846153845,153.70278281515294L135.69230769230768,153.94412771138278L135.92307692307693,154.1565999551253L136.15384615384616,154.35255300998688L136.3846153846154,154.5362876328555L136.6153846153846,154.70664737441322L136.84615384615384,154.8723138028925L137.07692307692307,155.02653485536575L137.53846153846155,155.350311729041L137.76923076923077,155.50975512916392L138,155.67323501001704L138.23076923076923,155.83675781163302L138.46153846153848,156.00906490195882L138.69230769230768,156.1749459342523L139.15384615384616,156.5016689083793L139.3846153846154,156.66259090466932L139.6153846153846,156.81227827072144L139.84615384615384,156.95508963411504L140.0769230769231,157.09226342764768L140.3076923076923,157.22452158819544L140.53846153846155,157.35179370641708L140.76923076923077,157.4733930501071L141,157.58305608142507L141.23076923076923,157.69181777672335L141.46153846153845,157.78860506144437L141.9230769230769,157.95947888764468L142.15384615384616,158.04455362666738L142.3846153846154,158.1172358393669L142.6153846153846,158.18502170931208L142.84615384615384,158.24796283786947L143.0769230769231,158.31172862378034L143.30769230769232,158.37808388200673L143.76923076923077,158.49733608690175L144,158.5564261620695L144.23076923076923,158.61064882982862L144.46153846153845,158.66154513846743L145.6153846153846,158.91642261364242L145.84615384615384,158.96373889663002L146.30769230769232,159.0491488034075L146.53846153846155,159.0913710187782L146.76923076923077,159.12793227488345L147,159.1675394583832L147.23076923076923,159.2028538422151L147.46153846153845,159.23777277632192L147.6923076923077,159.27003303441134L147.92307692307693,159.2939736572179L148.15384615384616,159.32734792611816L148.3846153846154,159.355219415643L148.6153846153846,159.3741356567903L148.84615384615384,159.40117887204343L149.07692307692307,159.42412170767784L149.30769230769232,159.44450545310974L149.53846153846155,159.4674540758133L149.76923076923077,159.4905333898284L150,159.50821192156184L150.46153846153845,159.53594379804352L150.6923076923077,159.55216037143362L150.92307692307693,159.56384446404198L151.3846153846154,159.60497292334384L151.61538461538464,159.62490286610344L151.84615384615384,159.6378089948134L152.07692307692307,159.6225832158869L152.3076923076923,159.6370561935685L152.53846153846152,159.65615858544004L152.76923076923077,159.67544519901276L153,159.68862549012357L153.23076923076923,159.70882067355242L153.46153846153845,159.72685993259603L153.6923076923077,159.72734267061406L153.92307692307693,159.74129288304937L154.15384615384616,159.75931405750188L154.3846153846154,159.77449136972427L154.61538461538458,159.7903380529447L154.84615384615387,159.8056978989731L155.07692307692307,159.79874678497964L155.3076923076923,159.81159311397508L155.53846153846152,159.82407642494547L155.76923076923077,159.80268211256373L156.23076923076923,159.8316680951552L156.46153846153845,159.84959064830434L156.6923076923077,159.8634591183879L156.92307692307693,159.8779754990881L157.15384615384616,159.89045736329123L157.3846153846154,159.90542163903064L157.6153846153846,159.91869548775932L157.84615384615387,159.9291887703267L158.0769230769231,159.94022434949875L158.3076923076923,159.95152721892703L158.53846153846152,159.9617202972824L158.76923076923077,159.9726413407109L159,159.98292616822502L159.23076923076923,159.99309501322833L159.69230769230768,160.0077616165985L159.92307692307693,160.01847239651462L160.15384615384616,160.02780585397375L160.3846153846154,160.03666453063488L160.6153846153846,160.04446164179933L160.84615384615387,160.05146652731028L161.0769230769231,160.05911353636873L161.30769230769232,160.06540769745004L161.53846153846152,160.07435450635174L161.76923076923075,160.0804976008155L162,160.0543826073408L162.23076923076923,160.0611452798952L162.46153846153845,160.06824577261102L162.69230769230768,160.07542390850458L162.92307692307693,160.08304330842063L163.15384615384616,160.08843492784283L163.6153846153846,160.09924457019025L163.84615384615384,160.1051075946201L164.0769230769231,160.11014499718493L164.30769230769232,160.11354273015803L164.53846153846155,160.118833437562L164.76923076923075,160.12451826848766L165,160.13043289428407L165.23076923076923,160.13523869351909L165.69230769230768,160.14645777100867L166.15384615384616,160.15834441103718L166.3846153846154,160.16262117570096L166.6153846153846,160.1685010790825L166.84615384615384,160.17392995276234L167.0769230769231,160.17752613398162L167.30769230769232,160.18274353850973L167.53846153846155,160.18655155057257L167.76923076923077,160.19059707359835L168.00000000000003,160.19625743004408L168.46153846153845,160.202948005362L168.69230769230768,160.20631173930386L168.9230769230769,160.21015881408346L169.15384615384616,160.21393330937082L169.6153846153846,160.22095435044983L169.84615384615384,160.22435123947534L170.0769230769231,160.22736425291407L170.53846153846155,160.2338780814951L170.76923076923077,160.2366288683631L170.99999999999997,160.23854679952967L171.23076923076925,160.24049776521596L171.46153846153845,160.2423044158654L171.69230769230768,160.244232353839L171.9230769230769,160.24687837064266L172.15384615384616,160.24946470829573L172.3846153846154,160.25246445970103L172.6153846153846,160.25485307249156L172.84615384615384,160.25694497742435L173.07692307692307,160.2593175552108L173.30769230769232,160.26178887486458L173.53846153846155,160.26507086645472L173.76923076923077,160.26824555613777L174,160.26936161653563L174.69230769230768,160.27571437169206L174.9230769230769,160.2766417495229L175.15384615384613,160.27962835945866L175.3846153846154,160.28224423527718L175.6153846153846,160.2842354693196L175.84615384615384,160.28634799068624L176.07692307692307,160.28803046047688L176.30769230769232,160.28955655883658L176.53846153846155,160.29101236841896L176.76923076923077,160.29303868656808L177,160.29490525749597L177.23076923076925,160.2972394959493L177.46153846153848,160.2991620085456L177.6923076923077,160.30035944960335L178.15384615384613,160.30491773106834L178.3846153846154,96.60938635739414L178.6153846153846,105.69076390699907L178.84615384615384,113.86942811445756L179.07692307692307,121.24174911325629L179.30769230769232,127.99547871676357L179.53846153846155,134.0639711076563L179.76923076923077,139.35197112777016L180,143.93243442882192L180.23076923076923,147.71055049246007L180.46153846153848,150.7652231129733L180.6923076923077,153.16796213930303L180.9230769230769,155.03207645633003L181.15384615384613,156.4946472644806L181.3846153846154,157.54250898144463L181.6153846153846,158.19165947762403L181.84615384615384,158.53218798745763L182.07692307692307,158.6032334241L182.3076923076923,158.55987983671102L182.53846153846155,158.47996041178703L182.76923076923077,158.32852824438703L183,158.12602639740163L183.46153846153848,157.69217464598742L183.92307692307693,157.34721709923312L184.6153846153846,157.20576280355453L184.84615384615384,157.26463321122256L185.07692307692307,157.36401310292158L185.3076923076923,157.50021129304713L185.53846153846155,157.66147183288228L185.76923076923077,157.84348287365654L186,158.02921427650884L186.23076923076923,158.21696150844747L186.46153846153845,158.3971423886039L186.6923076923077,158.57074891708115L186.92307692307693,158.72478598898107L187.15384615384616,158.86813289739868L187.38461538461536,158.99193373864347L187.61538461538464,159.09711516716263L188.07692307692307,159.21554295583203L188.3076923076923,159.2363824329593L188.53846153846155,159.26009856570852L188.76923076923077,159.2655367228118L189,159.2614254924384L189.23076923076923,159.26450469548053L189.46153846153845,159.26093961975792L189.6923076923077,159.26817273280838L189.92307692307693,159.27007378502324L190.15384615384616,159.27219812165606L190.3846153846154,159.27733486890793L190.61538461538464,159.28721219030294L190.84615384615387,159.29822425950658L191.3076923076923,159.3302376026457L191.53846153846152,159.35181541334498L191.76923076923077,159.3694160607728L192,159.3951217396693L192.23076923076923,159.41575022990054L192.6923076923077,159.46306386048144L192.92307692307693,159.48940635811198L193.15384615384616,159.51679848540914L193.3846153846154,159.52942611141637L193.6153846153846,159.5481046004729L193.84615384615387,159.56939378109846L194.0769230769231,159.58485465970907L194.3076923076923,159.59464300491592L194.53846153846152,159.60332915457812L194.76923076923077,159.6188146282326L195,159.62871678579938L195.23076923076923,159.63658141277054L195.46153846153845,159.647812908346L195.69230769230768,159.65632592818955L196.15384615384616,159.67109139399096L196.3846153846154,159.67855912446976L196.6153846153846,159.6846893185919L196.84615384615387,159.6944337785244L197.0769230769231,159.6994140337814L197.3076923076923,159.70676337047055L197.53846153846152,159.713043063879L197.76923076923075,159.721082508564L198,159.72926711223343L198.46153846153845,159.7422764436765L198.69230769230768,159.74852696061134L198.92307692307693,159.75762182203206L199.15384615384616,159.75997860594228L199.3846153846154,159.76727175983515L199.6153846153846,159.77223296598956L199.84615384615387,159.77810057184914L200.0769230769231,159.78593288768423L200.30769230769232,159.79166835546494L200.53846153846152,159.79639542644674L200.76923076923075,159.8027613230727L201,159.80929275398904L201.23076923076923,159.81626448441637L201.46153846153845,159.82278530570593L201.69230769230768,159.8299691081047L201.92307692307693,159.83669042722747L202.15384615384616,159.8433718396859L202.3846153846154,159.8505195934664L202.84615384615384,159.86288077316502L203.0769230769231,159.86760374497283L203.30769230769232,159.8757623068311L203.53846153846155,159.87932460958308L203.76923076923075,159.88452561741525L204.00000000000003,159.89227450300348L204.23076923076923,159.89818840541622L204.46153846153845,159.90348236804658L204.69230769230768,159.90578067844564L204.9230769230769,159.90765990858728L205.15384615384616,159.91059612279588L205.3846153846154,159.91642080789262L205.6153846153846,159.92170295525682L205.84615384615384,159.92803617905486L206.0769230769231,159.933328574354L206.30769230769232,159.93835560841993L206.53846153846155,159.9447149945931L206.76923076923077,159.95053172246978L206.99999999999997,159.95583026652986L207.23076923076923,159.9608932286501L207.46153846153845,159.96664967455646L207.69230769230768,159.97211315008727L207.9230769230769,159.9767983853817L208.3846153846154,159.9884728328748L208.6153846153846,159.9931216578592L208.84615384615384,159.9982885460962L209.0769230769231,160.00249200788411L209.30769230769232,160.00610374185172L209.53846153846155,160.01039425080472L209.76923076923077,160.01540995186025L210,160.01953251524404L210.46153846153845,160.02758932113647L210.69230769230768,160.0303530083461L210.9230769230769,160.03591197051784L211.15384615384616,160.03834000771695L211.3846153846154,160.04294868490913L211.6153846153846,160.04769721627235L211.84615384615384,160.05287423188037L212.07692307692307,160.0582064132799L212.30769230769232,160.0635258149017L212.53846153846155,160.06808096170425L212.76923076923077,160.0690580118786L213,160.07439103722572L213.23076923076925,160.07853264971212L213.46153846153848,160.08294155245477L213.69230769230768,160.08734647658738L213.9230769230769,160.09277064827356L214.15384615384613,160.09670754318887L214.3846153846154,160.10100709443742L214.6153846153846,160.10554403608495L214.84615384615384,160.10397477583453L215.07692307692307,160.10889438742942L215.30769230769232,160.1136253164573L215.53846153846155,160.1184078468518L215.76923076923077,160.12272029844198L216,160.12717356871474L216.23076923076923,160.1319652619687L216.46153846153848,160.13703690469265L216.6923076923077,160.14098597656596L216.9230769230769,160.14522078497842L217.15384615384613,160.1496742963791L217.6153846153846,160.15702966126528L217.84615384615384,160.16142349351537L218.07692307692307,160.16592233695766L218.3076923076923,160.16867372664538L218.53846153846155,160.17288502508944L218.76923076923077,160.17562881924889L219,160.17949337579986L219.46153846153848,160.18663449856368L219.6923076923077,160.18991781635717L219.92307692307693,160.19297121871602L220.15384615384613,160.19698515398935L220.38461538461542,160.20030524378473L220.6153846153846,160.203751322898L220.84615384615384,160.20745420320466L221.07692307692307,160.21111114865L221.53846153846155,160.21702698008582L221.76923076923077,160.2203480343927L222,160.22395217283204L222.23076923076923,160.22743791748178L222.46153846153848,160.23064600337636L222.92307692307693,160.23716356943953L223.15384615384616,160.24031137336385L223.38461538461536,160.24378457936373L223.6153846153846,160.24716579507697L223.84615384615384,160.24912025711754L224.07692307692307,160.2514239928939L224.3076923076923,160.25452441518956L224.76923076923077,160.26105379651892L225,160.26468373564157L225.23076923076923,160.26770639419556L225.46153846153845,160.2696708630432L225.6923076923077,160.27250471846625L225.92307692307693,160.27550157633695L226.15384615384616,160.2780605459755L226.3846153846154,160.28080554577437L226.61538461538464,160.28276362473315L226.84615384615384,160.28597713600504L227.07692307692307,160.28907273574308L227.3076923076923,160.29067358374596L227.53846153846152,160.29238740016115L227.76923076923077,160.29587941413575L228,160.29862634295768L228.23076923076923,160.3004211783409L228.46153846153845,160.30323622578925L228.6923076923077,160.3055499683727L228.92307692307693,160.30874201926318L229.15384615384616,160.31214264577085L229.3846153846154,160.31437452543867L229.61538461538458,160.31642616201532L229.84615384615387,160.3190288963643L230.07692307692307,160.32075513086536L230.3076923076923,160.32306188074025L230.53846153846152,160.32587837495586L230.76923076923077,160.3275894184004L231,160.3291612104936L231.23076923076923,160.33092301135713L231.46153846153845,160.33320504562423L231.6923076923077,160.3360674747012L231.92307692307693,160.3384396907958L232.15384615384616,160.34069146351382L232.3846153846154,160.34310406852853L232.6153846153846,160.3451875339855L232.84615384615387,160.3467840416865L233.0769230769231,160.34904015470636L233.3076923076923,160.35143286667088L233.53846153846152,160.35325663739985L233.76923076923077,160.3552206239917L234,160.35698121921584L234.46153846153845,160.36006632989103L234.69230769230768,160.3613446693529L234.92307692307693,160.3637049496174L235.15384615384616,160.3659089790149L235.6153846153846,160.37007735669613L235.84615384615387,160.37204773317683L236.0769230769231,160.37374418838456L236.30769230769232,160.37539965185252L236.53846153846152,160.37730733508414L236.76923076923075,160.37905008684504L237,160.3808728930625L237.23076923076923,160.38225793161175L237.46153846153845,125.50995952432807L237.92307692307693,135.84278884800997L238.15384615384616,139.75529319589788L238.3846153846154,142.95243284919044L238.6153846153846,145.3547089099884L238.84615384615384,147.14349005439064L239.0769230769231,148.46567138758573L239.53846153846155,150.32555921511218L239.76923076923075,150.76868088678881L240,151.1868969418786L240.46153846153845,152.5391777862202L240.69230769230768,153.1379571502859L240.9230769230769,153.55843209136617L241.15384615384616,153.87772832675412L241.3846153846154,154.16954273527318L241.84615384615384,154.77323146299884L242.0769230769231,155.1250245029276L242.30769230769232,155.5023949417201L242.76923076923077,156.28270839561117L243.00000000000003,156.62963065234098L243.23076923076923,156.93134866519407L243.46153846153845,157.2014297355305L243.69230769230768,157.42862958799708L243.9230769230769,157.62360655719584L244.15384615384616,157.78438050096685L244.3846153846154,157.92551964250478L244.6153846153846,158.06280194358393L244.84615384615384,158.18809488415718L245.0769230769231,158.30230004137212L245.30769230769232,158.41923838311976L245.53846153846155,158.52752650325948L245.76923076923077,158.62757287242195L245.99999999999997,158.73646236549723L246.23076923076925,158.8419403813102L246.46153846153845,158.93583943627098L246.9230769230769,159.12040980837563L247.15384615384616,159.20217554948547L247.3846153846154,159.27871532602742L247.6153846153846,159.33686524358663L248.07692307692307,159.43209315430033L248.30769230769232,159.47366842356595L248.53846153846155,159.51895754445684L248.76923076923077,159.55961459875107L249,159.595539518378L249.23076923076925,159.63457522879946L249.46153846153848,159.66945895823565L249.69230769230768,159.7042703493075L249.9230769230769,159.73635675419462L250.15384615384613,159.77546335621312L250.3846153846154,159.81667813929644L250.6153846153846,159.85279270600188L250.84615384615384,159.894115393812L251.07692307692307,159.92615260861137L251.30769230769232,159.96104441583157L251.53846153846155,159.99166524545714L251.76923076923077,160.0184758928689L252,160.041739910841L252.23076923076925,160.06619473885405L252.46153846153848,160.08700081976977L252.6923076923077,160.1072455549782L253.15384615384613,160.14011960408905L253.3846153846154,160.15388438918373L253.84615384615384,160.17494124309584L254.07692307692307,160.18667814271018L254.30769230769232,160.20029186118734L254.53846153846155,160.21185876564547L254.76923076923077,160.2170938930728L255,160.22629870880735L255.23076923076923,160.2348495857282L255.6923076923077,160.2493917671117L255.9230769230769,160.25777578353882L256.15384615384613,160.25957061892206L256.61538461538464,160.276947861368L256.84615384615387,160.28753904185513L257.0769230769231,160.29501014812425L257.3076923076923,160.3040349618955L257.7692307692308,160.3225562355735L258,160.3303359855305L258.2307692307692,160.3385398794304L258.46153846153845,160.34656521813437L258.6923076923077,160.35374938222495L258.9230769230769,160.3620781803673L259.15384615384613,160.37183710797265L259.38461538461536,160.37742054462433L259.61538461538464,160.3846165239811L259.84615384615387,160.39014329558069L260.0769230769231,160.3970229151574L260.3076923076923,160.40298468145457L260.53846153846155,160.4063010337678L260.7692307692308,160.4103953851895L261,160.4161239808256L261.2307692307692,160.42132932895964L261.46153846153845,160.42704864117232L261.6923076923077,160.43007756905124L261.9230769230769,160.43412260982123L262.15384615384613,160.43885980817404L262.38461538461536,160.4401854087006L262.61538461538464,160.44502026384527L262.84615384615387,160.45021584630013L263.0769230769231,160.45537140152672L263.3076923076923,160.46036660671234L263.53846153846155,160.4646231166341L263.7692307692308,160.46904238787565L264,160.47321377965537L264.2307692307692,160.47714380242607L264.46153846153845,160.47971519015053L264.9230769230769,160.48776078359649L265.15384615384613,160.49080864001405L265.38461538461536,160.49454069679433L265.61538461538464,160.4979577199979L265.84615384615387,160.5011803941293L266.0769230769231,160.5047061660073L266.53846153846155,160.51146968250924L266.7692307692308,160.51442976837808L267,160.51779289950025L267.2307692307692,160.5216080248356L267.46153846153845,160.5241380591284L268.15384615384613,160.53204837983304L268.38461538461536,160.53480603884566L268.6153846153846,160.53703924471682L268.84615384615387,160.5404785722494L269.0769230769231,160.54355536401272L269.3076923076923,160.545619900931L269.53846153846155,160.54788252440366L269.7692307692308,160.55088950964537L270,160.55411326885223L270.2307692307692,160.55622880431739L270.46153846153845,160.55779034847563L270.6923076923077,160.56059442460537L270.9230769230769,160.56301462514833L271.15384615384613,160.56639957834375L271.38461538461536,160.56853380121967L271.6153846153846,160.57097739116713L271.84615384615387,160.57292232865638L272.0769230769231,160.5750182121992L272.3076923076923,160.57677060907537L272.53846153846155,160.57917007262057L272.7692307692308,160.58172253180635L273,160.58448525450447L273.2307692307692,160.58713500879028L273.46153846153845,160.58978970619765L273.6923076923077,160.59168545359915L273.92307692307696,160.59413880922577L274.38461538461536,160.60012179477647L274.84615384615387,160.60387012768877L275.0769230769231,160.60624608126554L275.3076923076923,160.60816774991426L275.53846153846155,160.61035441810435L275.7692307692308,160.61227307265455L276.2307692307692,160.6163600696759L276.6923076923077,160.62040028788826L276.92307692307696,160.62187406149778L277.1538461538462,160.62351722744378L277.38461538461536,160.62560551545837L277.6153846153846,160.62785186279905L277.8461538461538,160.6299365338954L278.0769230769231,160.63201577961445" style="fill: none;" fill="none"></path></g></g></g></g></g></g><g transform="translate(30, 178)" clip-path="url(#clip_1)"><clipPath id="clip_1"><rect width="300" height="22"></rect></clipPath><g><g><line x1="0" y1="0" x2="0" y2="5" style="visibility: inherit;" fill="rgb(0, 0, 0)" stroke="rgb(204, 204, 204)" stroke-width="1px"></line><line x1="23.076923076923077" y1="0" x2="23.076923076923077" y2="5" style="visibility: inherit;" fill="rgb(0, 0, 0)" stroke="rgb(204, 204, 204)" stroke-width="1px"></line><line x1="46.15384615384615" y1="0" x2="46.15384615384615" y2="5" style="visibility: inherit;" fill="rgb(0, 0, 0)" stroke="rgb(204, 204, 204)" stroke-width="1px"></line><line x1="69.23076923076924" y1="0" x2="69.23076923076924" y2="5" style="visibility: inherit;" fill="rgb(0, 0, 0)" stroke="rgb(204, 204, 204)" stroke-width="1px"></line><line x1="92.3076923076923" y1="0" x2="92.3076923076923" y2="5" style="visibility: inherit;" fill="rgb(0, 0, 0)" stroke="rgb(204, 204, 204)" stroke-width="1px"></line><line x1="115.38461538461539" y1="0" x2="115.38461538461539" y2="5" style="visibility: inherit;" fill="rgb(0, 0, 0)" stroke="rgb(204, 204, 204)" stroke-width="1px"></line><line x1="138.46153846153848" y1="0" x2="138.46153846153848" y2="5" style="visibility: inherit;" fill="rgb(0, 0, 0)" stroke="rgb(204, 204, 204)" stroke-width="1px"></line><line x1="161.53846153846152" y1="0" x2="161.53846153846152" y2="5" style="visibility: inherit;" fill="rgb(0, 0, 0)" stroke="rgb(204, 204, 204)" stroke-width="1px"></line><line x1="184.6153846153846" y1="0" x2="184.6153846153846" y2="5" style="visibility: inherit;" fill="rgb(0, 0, 0)" stroke="rgb(204, 204, 204)" stroke-width="1px"></line><line x1="207.69230769230768" y1="0" x2="207.69230769230768" y2="5" style="visibility: inherit;" fill="rgb(0, 0, 0)" stroke="rgb(204, 204, 204)" stroke-width="1px"></line><line x1="230.76923076923077" y1="0" x2="230.76923076923077" y2="5" style="visibility: inherit;" fill="rgb(0, 0, 0)" stroke="rgb(204, 204, 204)" stroke-width="1px"></line><line x1="253.84615384615384" y1="0" x2="253.84615384615384" y2="5" style="visibility: inherit;" fill="rgb(0, 0, 0)" stroke="rgb(204, 204, 204)" stroke-width="1px"></line><line x1="276.92307692307696" y1="0" x2="276.92307692307696" y2="5" style="visibility: inherit;" fill="rgb(0, 0, 0)" stroke="rgb(204, 204, 204)" stroke-width="1px"></line><line x1="300" y1="0" x2="300" y2="5" style="visibility: inherit;" fill="rgb(0, 0, 0)" stroke="rgb(204, 204, 204)" stroke-width="1px"></line></g><g transform="translate(0, 8)"><text x="0" y="0" dx="0em" dy="0.95em" style="text-anchor: middle; visibility: hidden; font-family: Roboto, sans-serif; font-size: 12px; font-weight: 200;" fill="rgb(50, 49, 63)" stroke="none" stroke-width="1px">-100</text><text x="23.076923076923077" y="0" dx="0em" dy="0.95em" style="text-anchor: middle; visibility: inherit; font-family: Roboto, sans-serif; font-size: 12px; font-weight: 200;" fill="rgb(50, 49, 63)" stroke="none" stroke-width="1px">0</text><text x="46.15384615384615" y="0" dx="0em" dy="0.95em" style="text-anchor: middle; visibility: hidden; font-family: Roboto, sans-serif; font-size: 12px; font-weight: 200;" fill="rgb(50, 49, 63)" stroke="none" stroke-width="1px">100</text><text x="69.23076923076924" y="0" dx="0em" dy="0.95em" style="text-anchor: middle; visibility: inherit; font-family: Roboto, sans-serif; font-size: 12px; font-weight: 200;" fill="rgb(50, 49, 63)" stroke="none" stroke-width="1px">200</text><text x="92.3076923076923" y="0" dx="0em" dy="0.95em" style="text-anchor: middle; visibility: hidden; font-family: Roboto, sans-serif; font-size: 12px; font-weight: 200;" fill="rgb(50, 49, 63)" stroke="none" stroke-width="1px">300</text><text x="115.38461538461539" y="0" dx="0em" dy="0.95em" style="text-anchor: middle; visibility: inherit; font-family: Roboto, sans-serif; font-size: 12px; font-weight: 200;" fill="rgb(50, 49, 63)" stroke="none" stroke-width="1px">400</text><text x="138.46153846153848" y="0" dx="0em" dy="0.95em" style="text-anchor: middle; visibility: hidden; font-family: Roboto, sans-serif; font-size: 12px; font-weight: 200;" fill="rgb(50, 49, 63)" stroke="none" stroke-width="1px">500</text><text x="161.53846153846152" y="0" dx="0em" dy="0.95em" style="text-anchor: middle; visibility: inherit; font-family: Roboto, sans-serif; font-size: 12px; font-weight: 200;" fill="rgb(50, 49, 63)" stroke="none" stroke-width="1px">600</text><text x="184.6153846153846" y="0" dx="0em" dy="0.95em" style="text-anchor: middle; visibility: hidden; font-family: Roboto, sans-serif; font-size: 12px; font-weight: 200;" fill="rgb(50, 49, 63)" stroke="none" stroke-width="1px">700</text><text x="207.69230769230768" y="0" dx="0em" dy="0.95em" style="text-anchor: middle; visibility: inherit; font-family: Roboto, sans-serif; font-size: 12px; font-weight: 200;" fill="rgb(50, 49, 63)" stroke="none" stroke-width="1px">800</text><text x="230.76923076923077" y="0" dx="0em" dy="0.95em" style="text-anchor: middle; visibility: hidden; font-family: Roboto, sans-serif; font-size: 12px; font-weight: 200;" fill="rgb(50, 49, 63)" stroke="none" stroke-width="1px">900</text><text x="253.84615384615384" y="0" dx="0em" dy="0.95em" style="text-anchor: middle; visibility: inherit; font-family: Roboto, sans-serif; font-size: 12px; font-weight: 200;" fill="rgb(50, 49, 63)" stroke="none" stroke-width="1px">1k</text><text x="276.92307692307696" y="0" dx="0em" dy="0.95em" style="text-anchor: middle; visibility: hidden; font-family: Roboto, sans-serif; font-size: 12px; font-weight: 200;" fill="rgb(50, 49, 63)" stroke="none" stroke-width="1px">1.1k</text><text x="300" y="0" dx="0em" dy="0.95em" style="text-anchor: middle; visibility: hidden; font-family: Roboto, sans-serif; font-size: 12px; font-weight: 200;" fill="rgb(50, 49, 63)" stroke="none" stroke-width="1px">1.2k</text></g><line x1="0" y1="0" x2="300" y2="0" fill="rgb(0, 0, 0)" stroke="rgb(204, 204, 204)" stroke-width="1px"></line></g></g></g></g></svg>